<svg id="visual" viewBox="0 0 900 600" width="900" height="600" xmlns="http://www.w3.org/2000/svg" xmlns:xlink="http://www.w3.org/1999/xlink" version="1.1"><path d="M0 358L30 357.5C60 357 120 356 180 348.3C240 340.7 300 326.3 360 321.2C420 316 480 320 540 320.2C600 320.3 660 316.7 720 312C780 307.3 840 301.7 870 298.8L900 296L900 601L870 601C840 601 780 601 720 601C660 601 600 601 540 601C480 601 420 601 360 601C300 601 240 601 180 601C120 601 60 601 30 601L0 601Z" fill="#228b22"></path><path d="M0 440L30 439.3C60 438.7 120 437.3 180 430.7C240 424 300 412 360 409.5C420 407 480 414 540 412.7C600 411.3 660 401.7 720 402.5C780 403.3 840 414.7 870 420.3L900 426L900 601L870 601C840 601 780 601 720 601C660 601 600 601 540 601C480 601 420 601 360 601C300 601 240 601 180 601C120 601 60 601 30 601L0 601Z" fill="#ffffff"></path><path d="M0 502L30 507.3C60 512.7 120 523.3 180 522.5C240 521.7 300 509.3 360 501.2C420 493 480 489 540 487.7C600 486.3 660 487.7 720 493.2C780 498.7 840 508.3 870 513.2L900 518L900 601L870 601C840 601 780 601 720 601C660 601 600 601 540 601C480 601 420 601 360 601C300 601 240 601 180 601C120 601 60 601 30 601L0 601Z" fill="#228b22"></path></svg>