<svg id="visual" viewBox="0 0 900 600" width="900" height="600" xmlns="http://www.w3.org/2000/svg" xmlns:xlink="http://www.w3.org/1999/xlink" version="1.1"><path d="M0 349L21.5 349.2C43 349.3 86 349.7 128.8 353.7C171.7 357.7 214.3 365.3 257.2 362.2C300 359 343 345 385.8 348.7C428.7 352.3 471.3 373.7 514.2 372.8C557 372 600 349 642.8 348.7C685.7 348.3 728.3 370.7 771.2 372.7C814 374.7 857 356.3 878.5 347.2L900 338L900 601L878.5 601C857 601 814 601 771.2 601C728.3 601 685.7 601 642.8 601C600 601 557 601 514.2 601C471.3 601 428.7 601 385.8 601C343 601 300 601 257.2 601C214.3 601 171.7 601 128.8 601C86 601 43 601 21.5 601L0 601Z" fill="#009473"></path><path d="M0 395L21.5 409C43 423 86 451 128.8 460.7C171.7 470.3 214.3 461.7 257.2 453C300 444.3 343 435.7 385.8 428C428.7 420.3 471.3 413.7 514.2 411.2C557 408.7 600 410.3 642.8 412.2C685.7 414 728.3 416 771.2 418.3C814 420.7 857 423.3 878.5 424.7L900 426L900 601L878.5 601C857 601 814 601 771.2 601C728.3 601 685.7 601 642.8 601C600 601 557 601 514.2 601C471.3 601 428.7 601 385.8 601C343 601 300 601 257.2 601C214.3 601 171.7 601 128.8 601C86 601 43 601 21.5 601L0 601Z" fill="#dcede7"></path><path d="M0 471L21.5 469C43 467 86 463 128.8 467.5C171.7 472 214.3 485 257.2 496.2C300 507.3 343 516.7 385.8 517.2C428.7 517.7 471.3 509.3 514.2 505.7C557 502 600 503 642.8 503.7C685.7 504.3 728.3 504.7 771.2 499.7C814 494.7 857 484.3 878.5 479.2L900 474L900 601L878.5 601C857 601 814 601 771.2 601C728.3 601 685.7 601 642.8 601C600 601 557 601 514.2 601C471.3 601 428.7 601 385.8 601C343 601 300 601 257.2 601C214.3 601 171.7 601 128.8 601C86 601 43 601 21.5 601L0 601Z" fill="#dcede7"></path><path d="M0 559L21.5 550.7C43 542.3 86 525.7 128.8 519.5C171.7 513.3 214.3 517.7 257.2 518C300 518.3 343 514.7 385.8 517.5C428.7 520.3 471.3 529.7 514.2 534.8C557 540 600 541 642.8 538C685.7 535 728.3 528 771.2 524.3C814 520.7 857 520.3 878.5 520.2L900 520L900 601L878.5 601C857 601 814 601 771.2 601C728.3 601 685.7 601 642.8 601C600 601 557 601 514.2 601C471.3 601 428.7 601 385.8 601C343 601 300 601 257.2 601C214.3 601 171.7 601 128.8 601C86 601 43 601 21.5 601L0 601Z" fill="#009473"></path></svg>